# xmcd
#
# Track frame offsets: 
#        150
#        15768
#        29422
#        45513
#        58080
#        73595
#        84649
#        96937
#        110249
#        121563
#        139661
#        151419
#        166271
#        174047
#
# Disc length: 2495 seconds
#
# Revision: 0
# Processed by: cddbd v1.5.2PL0 Copyright (c) Steve Scherf et al.
# Submitted via: ExactAudioCopyFreeDBPlugin 1.0
#
DISCID=a809bd0e
DTITLE=Popperklopper - Wenn der Wind sich dreht
DYEAR=2013
DGENRE=Punk Rock
TTITLE0=Der Himmel verfärbt sich rot
TTITLE1=Ein Platz an der Sonne
TTITLE2=Wölfe im Schafspelz
TTITLE3=I'm Addicted to You
TTITLE4=Seelenstrip
TTITLE5=Shut Up
TTITLE6=Tommys Gang
TTITLE7=Szenepolizist
TTITLE8=Utopia
TTITLE9=Teufelskreis
TTITLE10=Wenn der Wind sich dreht
TTITLE11=No Solution
TTITLE12=V.I.P.
TTITLE13=Schau nach vorn
EXTD=
EXTT0=
EXTT1=
EXTT2=
EXTT3=
EXTT4=
EXTT5=
EXTT6=
EXTT7=
EXTT8=
EXTT9=
EXTT10=
EXTT11=
EXTT12=
EXTT13=
PLAYORDER=
